<svg xmlns="http://www.w3.org/2000/svg" width="24" height="24" version="1.0"><path fill="#010101" d="M7.002 13.581a.344.344 0 0 1-.244-.1c-.698-.682-1.083-1.594-1.083-2.569s.385-1.888 1.083-2.57a3.563 3.563 0 0 1 2.564-1.075h.001c.977 0 1.89.384 2.573 1.081a.35.35 0 0 1-.5.49 2.88 2.88 0 0 0-2.073-.871h-.001c-.786 0-1.521.309-2.07.87-.567.555-.877 1.29-.877 2.074s.31 1.52.871 2.068a.349.349 0 0 1 .006.495.345.345 0 0 1-.25.107zm.396-6.956a.348.348 0 0 1-.325-.222l-.48-1.216a.35.35 0 1 1 .65-.257l.48 1.216a.348.348 0 0 1-.325.479zM3.35 13.806a.351.351 0 0 1-.131-.675l1.189-.48a.35.35 0 0 1 .455.194.348.348 0 0 1-.193.455l-1.189.48a.336.336 0 0 1-.131.026zm1.216-4.439a.354.354 0 0 1-.131-.025l-1.189-.48a.35.35 0 0 1 .262-.651l1.189.48c.18.073.266.276.193.456a.348.348 0 0 1-.324.22zm6.768-2.714a.35.35 0 0 1-.322-.488l.51-1.188a.35.35 0 0 1 .643.276l-.51 1.188a.349.349 0 0 1-.321.212z"/><path fill="#010101" d="M17.961 19.292H8.162a.352.352 0 0 1-.165-.042c-1.678-.208-2.931-1.6-2.931-3.277 0-1.814 1.49-3.291 3.322-3.291.073 0 .146.003.218.009.061-2.463 2.074-4.449 4.54-4.449 2.504 0 4.541 2.047 4.541 4.563 0 .045-.001.09-.004.135A3.182 3.182 0 0 1 21 16.113a3.19 3.19 0 0 1-3.02 3.177l-.019.002zm-9.689-.701h9.679a2.492 2.492 0 0 0 2.35-2.477 2.482 2.482 0 0 0-2.48-2.477c-.178 0-.33.025-.481.051a.354.354 0 0 1-.405-.397c.031-.204.054-.345.054-.486 0-2.13-1.724-3.863-3.842-3.863s-3.842 1.733-3.842 3.863c0 .044 0 .137.011.169a.357.357 0 0 1-.064.336.358.358 0 0 1-.315.125c-.188-.027-.366-.053-.547-.053-1.446 0-2.623 1.162-2.623 2.59 0 1.327 1.056 2.466 2.401 2.592a.37.37 0 0 1 .104.027z"/></svg>